<svg width="70" height="24" viewBox="0 0 70 24" fill="none" xmlns="http://www.w3.org/2000/svg">
<path d="M16.2831 12.7534C16.2542 9.71631 18.7585 8.25713 18.8712 8.18764C17.4616 6.12336 15.2721 5.83963 14.4922 5.80778C12.6292 5.6167 10.8557 6.90796 9.90824 6.90796C8.96082 6.90796 7.50214 5.83384 5.95681 5.86569C3.92332 5.89464 2.0487 7.04983 1.00019 8.87381C-1.1084 12.5391 0.462933 17.9821 2.52241 20.9613C3.53049 22.4176 4.72632 24.0592 6.30342 23.9984C7.82276 23.9376 8.39468 23.014 10.226 23.014C12.0573 23.014 12.5743 23.9984 14.1774 23.9694C15.8094 23.9376 16.8435 22.4813 17.8429 21.0192C18.9925 19.3255 19.4691 17.6897 19.498 17.6028C19.4604 17.5884 16.3178 16.3811 16.2831 12.7534Z" fill="#2B2929"/>
<path d="M13.2704 3.83325C14.1081 2.81703 14.6713 1.40707 14.5182 0C13.3137 0.0492185 11.8551 0.804867 10.9914 1.82108C10.2173 2.7186 9.53851 4.15462 9.72337 5.53274C11.0607 5.63696 12.4356 4.84657 13.2704 3.83325ZM26.8462 15.7383L25.4598 19.9509H23.6776L28.2154 6.56343H30.2951L34.8502 19.9509H33.0073L31.5804 15.7383H26.8462ZM31.2252 14.3863L29.9196 10.5328C29.6221 9.6584 29.4256 8.86512 29.2263 8.0892H29.1888C28.9895 8.88249 28.7728 9.69604 28.5158 10.5125L27.2102 14.3834L31.2252 14.3863ZM36.202 13.4743C36.202 12.2438 36.1644 11.2479 36.1211 10.3359H37.6867L37.7675 11.9861H37.8051C38.5185 10.8136 39.6479 10.1187 41.2135 10.1187C43.5329 10.1187 45.2747 12.0846 45.2747 15.0058C45.2747 18.4627 43.1748 20.168 40.916 20.168C39.6479 20.168 38.5388 19.6121 37.964 18.6596H37.9264V23.8826H36.202V13.4743ZM37.9235 16.0365C37.9235 16.2971 37.9611 16.5316 38.0044 16.7517C38.3221 17.9619 39.3706 18.7986 40.6214 18.7986C42.4642 18.7986 43.5358 17.2902 43.5358 15.084C43.5358 13.1558 42.5249 11.5113 40.682 11.5113C39.4949 11.5113 38.3857 12.3654 38.0448 13.6769C37.9842 13.8941 37.9264 14.1547 37.9264 14.3921L37.9235 16.0365ZM47.0771 13.4743C47.0771 12.2438 47.0395 11.2479 46.9962 10.3359H48.5618L48.6426 11.9861H48.6802C49.3936 10.8136 50.523 10.1187 52.0886 10.1187C54.408 10.1187 56.1498 12.0846 56.1498 15.0058C56.1498 18.4627 54.0499 20.168 51.7911 20.168C50.523 20.168 49.4139 19.6121 48.8391 18.6596H48.8015V23.8826H47.0771V13.4743ZM48.8015 16.0365C48.8015 16.2971 48.8391 16.5316 48.8824 16.7517C49.2001 17.9619 50.2486 18.7986 51.4993 18.7986C53.3422 18.7986 54.4138 17.2902 54.4138 15.084C54.4138 13.1558 53.4028 11.5113 51.56 11.5113C50.3728 11.5113 49.2637 12.3654 48.9228 13.6769C48.8622 13.8941 48.8044 14.1547 48.8044 14.3921L48.8015 16.0365ZM57.9551 5.84831H59.6997V19.948H57.9551V5.84831ZM63.2063 15.4604C63.2439 17.8229 64.7516 18.7986 66.4934 18.7986C67.7412 18.7986 68.4951 18.5814 69.1479 18.3035L69.4454 19.5542C68.8331 19.8322 67.7817 20.1506 66.2565 20.1506C63.3045 20.1506 61.5397 18.2051 61.5397 15.3041C61.5397 12.4031 63.2439 10.1187 66.037 10.1187C69.1681 10.1187 70 12.8779 70 14.6468C70 15.0058 69.9625 15.2809 69.9393 15.4604H63.2063ZM68.3189 14.2097C68.3391 13.0979 67.8625 11.3695 65.9013 11.3695C64.1364 11.3695 63.3652 12.9995 63.2265 14.2097H68.3189Z" fill="#2B2929"/>
</svg>
