<svg width="215" height="454" viewBox="0 0 215 454" fill="none" xmlns="http://www.w3.org/2000/svg">
<path fill-rule="evenodd" clip-rule="evenodd" d="M0.216928 65.4021C1.41485 64.3125 8.70846 58.701 25.747 65.4021H25.935C25.9398 63.8988 26.593 39.7089 62.9719 27.1749C100.51 14.2393 106.736 4.15152 107.517 0.00721586V0L107.519 0.00481057V0V0.00721586C108.3 4.15152 114.526 14.2393 152.064 27.1749C188.443 39.7089 189.096 63.8988 189.101 65.4021H189.289C206.33 58.701 213.624 64.3125 214.822 65.4021H214.973V65.5464L215 65.5753V65.5825H214.973V417.63V438.791V442.635C214.973 448.886 209.849 454 203.585 454H11.3887C5.12433 454 0 448.886 0 442.635V438.791V417.63V65.4021H0.216928Z" fill="#EAEEF5"/>
</svg>
