<svg width="17" height="17" viewBox="0 0 17 17" fill="none" xmlns="http://www.w3.org/2000/svg">
<path d="M1 0C0.447715 0 0 0.447715 0 1C0 1.55228 0.447715 2 1 2V0ZM2.66667 1L3.66388 0.92538C3.62483 0.403502 3.19 0 2.66667 0V1ZM5.15337 12.0151L5.08014 11.0178L5.08014 11.0178L5.15337 12.0151ZM13.7822 11.3815L13.8554 12.3788L13.8554 12.3788L13.7822 11.3815ZM15.3199 9.86175L14.3257 9.75429L14.3257 9.75429L15.3199 9.86175ZM16 3.56996L16.9942 3.67742C17.0247 3.39514 16.9338 3.1132 16.7441 2.90193C16.5545 2.69065 16.2839 2.56996 16 2.56996V3.56996ZM2.85897 3.56996L1.86176 3.64458L1.86176 3.64458L2.85897 3.56996ZM3.37287 10.4375L2.37566 10.5122L2.37566 10.5122L3.37287 10.4375ZM5.58333 15.9914V14.9914C5.03105 14.9914 4.58333 15.4391 4.58333 15.9914H5.58333ZM5.59167 15.9914H6.59167C6.59167 15.4391 6.14395 14.9914 5.59167 14.9914V15.9914ZM5.59167 16V17C6.14395 17 6.59167 16.5523 6.59167 16H5.59167ZM5.58333 16H4.58333C4.58333 16.5523 5.03105 17 5.58333 17V16ZM13.0833 15.9914V14.9914C12.531 14.9914 12.0833 15.4391 12.0833 15.9914H13.0833ZM13.0917 15.9914H14.0917C14.0917 15.4391 13.644 14.9914 13.0917 14.9914V15.9914ZM13.0917 16V17C13.644 17 14.0917 16.5523 14.0917 16H13.0917ZM13.0833 16H12.0833C12.0833 16.5523 12.531 17 13.0833 17V16ZM1 2H2.66667V0H1V2ZM5.2266 13.0124L13.8554 12.3788L13.709 10.3842L5.08014 11.0178L5.2266 13.0124ZM16.3142 9.96921L16.9942 3.67742L15.0058 3.4625L14.3257 9.75429L16.3142 9.96921ZM1.66945 1.07462L1.86176 3.64458L3.85619 3.49534L3.66388 0.92538L1.66945 1.07462ZM1.86176 3.64458L2.37566 10.5122L4.37008 10.3629L3.85619 3.49534L1.86176 3.64458ZM16 2.56996H2.85897V4.56996H16V2.56996ZM13.8554 12.3788C15.1586 12.2831 16.1756 11.2512 16.3142 9.96921L14.3257 9.75429C14.2867 10.1155 14.0101 10.3621 13.709 10.3842L13.8554 12.3788ZM5.08014 11.0178C4.74125 11.0427 4.40116 10.7783 4.37008 10.3629L2.37566 10.5122C2.48522 11.9764 3.73632 13.1218 5.2266 13.0124L5.08014 11.0178ZM5.58333 16.9914H5.59167V14.9914H5.58333V16.9914ZM4.59167 15.9914V16H6.59167V15.9914H4.59167ZM5.59167 15H5.58333V17H5.59167V15ZM6.58333 16V15.9914H4.58333V16H6.58333ZM13.0833 16.9914H13.0917V14.9914H13.0833V16.9914ZM12.0917 15.9914V16H14.0917V15.9914H12.0917ZM13.0917 15H13.0833V17H13.0917V15ZM14.0833 16V15.9914H12.0833V16H14.0833Z" fill="white"/>
</svg>
