<svg width="44" height="43" viewBox="0 0 44 43" fill="none" xmlns="http://www.w3.org/2000/svg">
<path fill-rule="evenodd" clip-rule="evenodd" d="M15.9903 0.479029L15.7667 0.739314C13.8446 2.72099 13.5331 3.26684 10.9658 3.52633C9.5748 3.66685 8.72957 3.71902 7.94344 4.58477C7.28562 5.30867 6.93076 7.04976 6.69995 7.27917C6.45876 8.13401 6.26309 8.46802 5.73838 8.98832C5.34519 9.37795 4.79758 9.85647 4.18076 10.0369C4.09105 10.1684 3.13587 10.8207 2.90586 10.9977C1.06685 12.4133 2.29064 14.5613 2.13198 16.519C2.04173 17.6333 1.13181 18.765 0.656082 19.5389C-1.13261 22.4491 1.21779 23.3838 2.00765 25.8158C2.29224 26.6917 2.09763 27.6703 1.97757 28.5773C1.30139 33.688 5.35823 31.4101 6.86634 36.0414C7.45068 37.8358 7.80341 38.9365 9.78032 39.2921C12.082 39.7059 12.7633 39.2463 14.4234 40.9235C14.7151 41.2181 14.9332 41.4074 15.2055 41.681C15.4824 41.9591 15.674 42.1927 16.0018 42.4238C18.5774 44.2378 20.1252 41.092 23.4228 42.1603C25.1058 42.7053 26.6179 43.6083 28.1398 42.2811C29.2201 41.3392 29.9431 39.9859 31.7566 39.6141C33.6696 39.2221 35.3878 39.4981 36.3086 38.0066C37.2739 36.4433 36.9656 35.2052 38.3912 33.8144C39.4409 32.7906 41.1702 32.3991 41.8235 31.0769C42.615 29.4752 41.2964 27.3286 42.0791 25.5052C42.5987 24.2948 44.1164 22.7762 43.9929 21.2715C43.8694 19.767 42.3642 18.547 41.9308 17.0627C41.6797 16.2036 41.8749 15.204 41.9883 14.3194C42.0538 13.8089 42.1105 13.2923 42.058 12.7779C42.0003 12.2113 41.7873 11.9688 41.7282 11.5994L41.3462 11.2505C41.187 11.0954 41.171 11.081 40.9988 10.9402C40.7078 10.7023 40.6165 10.648 40.2874 10.4391C38.0467 9.01573 37.8447 9.12272 36.9028 6.34183C35.4583 2.07613 32.8065 4.4863 30.462 2.87322C27.7333 0.996139 28.4084 -1.03557 23.9105 0.620349C22.2325 1.23806 21.6396 1.19894 19.9723 0.586815C19.3965 0.375234 18.6764 0.0481481 18.0175 0.0130177C16.7892 -0.0524528 16.8728 0.133047 15.9903 0.479029Z" fill="#A594FE"/>
<path d="M13.54 26C13.4373 26 13.358 25.972 13.302 25.916C13.246 25.8507 13.218 25.7713 13.218 25.678V16.536C13.218 16.4333 13.246 16.354 13.302 16.298C13.358 16.2327 13.4373 16.2 13.54 16.2H14.254C14.3567 16.2 14.436 16.2327 14.492 16.298C14.5573 16.354 14.59 16.4333 14.59 16.536V20.4H19.406V16.536C19.406 16.4333 19.434 16.354 19.49 16.298C19.5553 16.2327 19.6347 16.2 19.728 16.2H20.442C20.5447 16.2 20.624 16.2327 20.68 16.298C20.7453 16.354 20.778 16.4333 20.778 16.536V25.678C20.778 25.7713 20.7453 25.8507 20.68 25.916C20.624 25.972 20.5447 26 20.442 26H19.728C19.6347 26 19.5553 25.972 19.49 25.916C19.434 25.8507 19.406 25.7713 19.406 25.678V21.66H14.59V25.678C14.59 25.7713 14.5573 25.8507 14.492 25.916C14.436 25.972 14.3567 26 14.254 26H13.54ZM23.3521 26C23.2588 26 23.1795 25.972 23.1141 25.916C23.0581 25.8507 23.0301 25.7713 23.0301 25.678V19.042C23.0301 18.9487 23.0581 18.874 23.1141 18.818C23.1795 18.7527 23.2588 18.72 23.3521 18.72H24.0241C24.1175 18.72 24.1921 18.7527 24.2481 18.818C24.3135 18.874 24.3461 18.9487 24.3461 19.042V25.678C24.3461 25.7713 24.3135 25.8507 24.2481 25.916C24.1921 25.972 24.1175 26 24.0241 26H23.3521ZM23.2401 17.362C23.1468 17.362 23.0675 17.334 23.0021 17.278C22.9461 17.2127 22.9181 17.1333 22.9181 17.04V16.284C22.9181 16.1907 22.9461 16.1113 23.0021 16.046C23.0675 15.9807 23.1468 15.948 23.2401 15.948H24.1221C24.2155 15.948 24.2948 15.9807 24.3601 16.046C24.4255 16.1113 24.4581 16.1907 24.4581 16.284V17.04C24.4581 17.1333 24.4255 17.2127 24.3601 17.278C24.2948 17.334 24.2155 17.362 24.1221 17.362H23.2401ZM29.2628 26C28.7401 26 28.3154 25.902 27.9888 25.706C27.6621 25.5007 27.4241 25.216 27.2748 24.852C27.1254 24.4787 27.0508 24.04 27.0508 23.536V19.84H25.9588C25.8654 19.84 25.7861 19.812 25.7208 19.756C25.6648 19.6907 25.6368 19.6113 25.6368 19.518V19.042C25.6368 18.9487 25.6648 18.874 25.7208 18.818C25.7861 18.7527 25.8654 18.72 25.9588 18.72H27.0508V16.382C27.0508 16.2887 27.0788 16.214 27.1348 16.158C27.2001 16.0927 27.2794 16.06 27.3728 16.06H28.0308C28.1241 16.06 28.1988 16.0927 28.2548 16.158C28.3201 16.214 28.3528 16.2887 28.3528 16.382V18.72H30.0888C30.1914 18.72 30.2708 18.7527 30.3268 18.818C30.3828 18.874 30.4108 18.9487 30.4108 19.042V19.518C30.4108 19.6113 30.3828 19.6907 30.3268 19.756C30.2708 19.812 30.1914 19.84 30.0888 19.84H28.3528V23.438C28.3528 23.8767 28.4274 24.222 28.5768 24.474C28.7261 24.726 28.9921 24.852 29.3748 24.852H30.2288C30.3221 24.852 30.3968 24.8847 30.4528 24.95C30.5181 25.006 30.5508 25.0807 30.5508 25.174V25.678C30.5508 25.7713 30.5181 25.8507 30.4528 25.916C30.3968 25.972 30.3221 26 30.2288 26H29.2628Z" fill="black"/>
</svg>
