<svg width="44" height="43" viewBox="0 0 44 43" fill="none" xmlns="http://www.w3.org/2000/svg">
<path fill-rule="evenodd" clip-rule="evenodd" d="M15.9903 0.479029L15.7667 0.739314C13.8446 2.72099 13.5331 3.26684 10.9658 3.52633C9.5748 3.66685 8.72957 3.71902 7.94344 4.58477C7.28562 5.30867 6.93076 7.04976 6.69995 7.27917C6.45876 8.13401 6.26309 8.46802 5.73838 8.98832C5.34519 9.37795 4.79758 9.85647 4.18076 10.0369C4.09105 10.1684 3.13587 10.8207 2.90586 10.9977C1.06685 12.4133 2.29064 14.5613 2.13198 16.519C2.04173 17.6333 1.13181 18.765 0.656082 19.5389C-1.13261 22.4491 1.21779 23.3838 2.00765 25.8158C2.29224 26.6917 2.09763 27.6703 1.97757 28.5773C1.30139 33.688 5.35823 31.4101 6.86634 36.0414C7.45068 37.8358 7.80341 38.9365 9.78032 39.2921C12.082 39.7059 12.7633 39.2463 14.4234 40.9235C14.7151 41.2181 14.9332 41.4074 15.2055 41.681C15.4824 41.9591 15.674 42.1927 16.0018 42.4238C18.5774 44.2378 20.1252 41.092 23.4228 42.1603C25.1058 42.7053 26.6179 43.6083 28.1398 42.2811C29.2201 41.3392 29.9431 39.9859 31.7566 39.6141C33.6696 39.2221 35.3878 39.4981 36.3086 38.0066C37.2739 36.4433 36.9656 35.2052 38.3912 33.8144C39.4409 32.7906 41.1702 32.3991 41.8235 31.0769C42.615 29.4752 41.2964 27.3286 42.0791 25.5052C42.5987 24.2948 44.1164 22.7762 43.9929 21.2715C43.8694 19.767 42.3642 18.547 41.9308 17.0627C41.6797 16.2036 41.8749 15.204 41.9883 14.3194C42.0538 13.8089 42.1105 13.2923 42.058 12.7779C42.0003 12.2113 41.7873 11.9688 41.7282 11.5994L41.3462 11.2505C41.187 11.0954 41.171 11.081 40.9988 10.9402C40.7078 10.7023 40.6165 10.648 40.2874 10.4391C38.0467 9.01573 37.8447 9.12272 36.9028 6.34183C35.4583 2.07613 32.8065 4.4863 30.462 2.87322C27.7333 0.996139 28.4084 -1.03557 23.9105 0.620349C22.2325 1.23806 21.6396 1.19894 19.9723 0.586815C19.3965 0.375234 18.6764 0.0481481 18.0175 0.0130177C16.7892 -0.0524528 16.8728 0.133047 15.9903 0.479029Z" fill="#ABD835"/>
<path d="M9.54 26C9.43733 26 9.358 25.972 9.302 25.916C9.246 25.8507 9.218 25.7713 9.218 25.678V16.536C9.218 16.4333 9.246 16.354 9.302 16.298C9.358 16.2327 9.43733 16.2 9.54 16.2H10.184C10.296 16.2 10.38 16.228 10.436 16.284C10.492 16.3307 10.5247 16.368 10.534 16.396L15.182 23.536V16.536C15.182 16.4333 15.21 16.354 15.266 16.298C15.322 16.2327 15.4013 16.2 15.504 16.2H16.176C16.2787 16.2 16.358 16.2327 16.414 16.298C16.4793 16.354 16.512 16.4333 16.512 16.536V25.664C16.512 25.7573 16.4793 25.8367 16.414 25.902C16.358 25.9673 16.2833 26 16.19 26H15.518C15.4153 26 15.336 25.972 15.28 25.916C15.2333 25.86 15.2007 25.8227 15.182 25.804L10.548 18.734V25.678C10.548 25.7713 10.5153 25.8507 10.45 25.916C10.394 25.972 10.3147 26 10.212 26H9.54ZM21.6824 26.14C20.7117 26.14 19.9417 25.846 19.3724 25.258C18.803 24.6607 18.4904 23.8487 18.4344 22.822C18.425 22.7007 18.4204 22.5467 18.4204 22.36C18.4204 22.164 18.425 22.0053 18.4344 21.884C18.4717 21.2213 18.6257 20.6427 18.8964 20.148C19.167 19.644 19.5357 19.2567 20.0024 18.986C20.4784 18.7153 21.0337 18.58 21.6684 18.58C22.3777 18.58 22.9704 18.7293 23.4464 19.028C23.9317 19.3267 24.3004 19.7513 24.5524 20.302C24.8044 20.8527 24.9304 21.4967 24.9304 22.234V22.472C24.9304 22.5747 24.8977 22.654 24.8324 22.71C24.7764 22.766 24.7017 22.794 24.6084 22.794H19.7644C19.7644 22.8033 19.7644 22.822 19.7644 22.85C19.7644 22.878 19.7644 22.9013 19.7644 22.92C19.783 23.3027 19.867 23.662 20.0164 23.998C20.1657 24.3247 20.3804 24.5907 20.6604 24.796C20.9497 25.0013 21.2857 25.104 21.6684 25.104C22.0044 25.104 22.2844 25.0527 22.5084 24.95C22.7324 24.8473 22.9144 24.7353 23.0544 24.614C23.1944 24.4833 23.2877 24.3807 23.3344 24.306C23.4184 24.194 23.4837 24.1287 23.5304 24.11C23.577 24.082 23.6517 24.068 23.7544 24.068H24.4404C24.5244 24.068 24.5944 24.096 24.6504 24.152C24.7157 24.1987 24.7437 24.2687 24.7344 24.362C24.725 24.502 24.6504 24.6747 24.5104 24.88C24.3704 25.076 24.1697 25.272 23.9084 25.468C23.6564 25.664 23.339 25.8273 22.9564 25.958C22.583 26.0793 22.1584 26.14 21.6824 26.14ZM19.7644 21.828H23.6004V21.786C23.6004 21.366 23.521 20.9927 23.3624 20.666C23.213 20.3393 22.9937 20.0827 22.7044 19.896C22.415 19.7 22.0697 19.602 21.6684 19.602C21.267 19.602 20.9217 19.7 20.6324 19.896C20.3524 20.0827 20.1377 20.3393 19.9884 20.666C19.839 20.9927 19.7644 21.366 19.7644 21.786V21.828ZM28.345 26C28.2236 26 28.1303 25.972 28.065 25.916C27.9996 25.8507 27.9436 25.762 27.897 25.65L25.909 19.154C25.8903 19.1073 25.881 19.0607 25.881 19.014C25.881 18.93 25.909 18.86 25.965 18.804C26.0303 18.748 26.1003 18.72 26.175 18.72H26.791C26.8936 18.72 26.973 18.748 27.029 18.804C27.085 18.86 27.1223 18.9113 27.141 18.958L28.695 24.236L30.361 19.014C30.3796 18.9487 30.417 18.8833 30.473 18.818C30.5383 18.7527 30.6316 18.72 30.753 18.72H31.229C31.3503 18.72 31.4436 18.7527 31.509 18.818C31.5743 18.8833 31.6116 18.9487 31.621 19.014L33.287 24.236L34.841 18.958C34.8503 18.9113 34.883 18.86 34.939 18.804C34.995 18.748 35.0743 18.72 35.177 18.72H35.807C35.8816 18.72 35.947 18.748 36.003 18.804C36.059 18.86 36.087 18.93 36.087 19.014C36.087 19.0607 36.0776 19.1073 36.059 19.154L34.085 25.65C34.0476 25.762 33.9963 25.8507 33.931 25.916C33.8656 25.972 33.763 26 33.623 26H33.077C32.9556 26 32.853 25.972 32.769 25.916C32.6943 25.8507 32.643 25.762 32.615 25.65L30.991 20.638L29.367 25.65C29.3296 25.762 29.2736 25.8507 29.199 25.916C29.1243 25.972 29.0216 26 28.891 26H28.345Z" fill="black"/>
</svg>
