<svg width="44" height="43" viewBox="0 0 44 43" fill="none" xmlns="http://www.w3.org/2000/svg">
<path fill-rule="evenodd" clip-rule="evenodd" d="M15.9903 0.479029L15.7667 0.739314C13.8446 2.72099 13.5331 3.26684 10.9658 3.52633C9.5748 3.66685 8.72957 3.71902 7.94344 4.58477C7.28562 5.30867 6.93076 7.04976 6.69995 7.27917C6.45876 8.13401 6.26309 8.46802 5.73838 8.98832C5.34519 9.37795 4.79758 9.85647 4.18076 10.0369C4.09105 10.1684 3.13587 10.8207 2.90586 10.9977C1.06685 12.4133 2.29064 14.5613 2.13198 16.519C2.04173 17.6333 1.13181 18.765 0.656082 19.5389C-1.13261 22.4491 1.21779 23.3838 2.00765 25.8158C2.29224 26.6917 2.09763 27.6703 1.97757 28.5773C1.30139 33.688 5.35823 31.4101 6.86634 36.0414C7.45068 37.8358 7.80341 38.9365 9.78032 39.2921C12.082 39.7059 12.7633 39.2463 14.4234 40.9235C14.7151 41.2181 14.9332 41.4074 15.2055 41.681C15.4824 41.9591 15.674 42.1927 16.0018 42.4238C18.5774 44.2378 20.1252 41.092 23.4228 42.1603C25.1058 42.7053 26.6179 43.6083 28.1398 42.2811C29.2201 41.3392 29.9431 39.9859 31.7566 39.6141C33.6696 39.2221 35.3878 39.4981 36.3086 38.0066C37.2739 36.4433 36.9656 35.2052 38.3912 33.8144C39.4409 32.7906 41.1702 32.3991 41.8235 31.0769C42.615 29.4752 41.2964 27.3286 42.0791 25.5052C42.5987 24.2948 44.1164 22.7762 43.9929 21.2715C43.8694 19.767 42.3642 18.547 41.9308 17.0627C41.6797 16.2036 41.8749 15.204 41.9883 14.3194C42.0538 13.8089 42.1105 13.2923 42.058 12.7779C42.0003 12.2113 41.7873 11.9688 41.7282 11.5994L41.3462 11.2505C41.187 11.0954 41.171 11.081 40.9988 10.9402C40.7078 10.7023 40.6165 10.648 40.2874 10.4391C38.0467 9.01573 37.8447 9.12272 36.9028 6.34183C35.4583 2.07613 32.8065 4.4863 30.462 2.87322C27.7333 0.996139 28.4084 -1.03557 23.9105 0.620349C22.2325 1.23806 21.6396 1.19894 19.9723 0.586815C19.3965 0.375234 18.6764 0.0481481 18.0175 0.0130177C16.7892 -0.0524528 16.8728 0.133047 15.9903 0.479029Z" fill="#FF9B24"/>
<path d="M12.368 26.14C11.556 26.14 10.8747 26.014 10.324 25.762C9.77333 25.51 9.34867 25.188 9.05 24.796C8.76067 24.3947 8.60667 23.9747 8.588 23.536C8.588 23.4613 8.616 23.396 8.672 23.34C8.73733 23.2747 8.812 23.242 8.896 23.242H9.61C9.722 23.242 9.806 23.27 9.862 23.326C9.918 23.382 9.95533 23.4473 9.974 23.522C10.03 23.746 10.1467 23.97 10.324 24.194C10.5013 24.4087 10.7533 24.5907 11.08 24.74C11.416 24.88 11.8453 24.95 12.368 24.95C13.1707 24.95 13.7587 24.81 14.132 24.53C14.5147 24.2407 14.706 23.858 14.706 23.382C14.706 23.0553 14.6033 22.794 14.398 22.598C14.202 22.3927 13.8987 22.2107 13.488 22.052C13.0773 21.8933 12.5453 21.7207 11.892 21.534C11.2107 21.338 10.646 21.1233 10.198 20.89C9.75 20.6567 9.414 20.3673 9.19 20.022C8.97533 19.6767 8.868 19.238 8.868 18.706C8.868 18.202 9.00333 17.754 9.274 17.362C9.54467 16.9607 9.93667 16.6433 10.45 16.41C10.9633 16.1767 11.5793 16.06 12.298 16.06C12.8767 16.06 13.3807 16.1393 13.81 16.298C14.2487 16.4473 14.6127 16.6527 14.902 16.914C15.1913 17.166 15.4107 17.4413 15.56 17.74C15.7093 18.0293 15.7887 18.314 15.798 18.594C15.798 18.6593 15.7747 18.7247 15.728 18.79C15.6813 18.846 15.6067 18.874 15.504 18.874H14.762C14.6967 18.874 14.6267 18.8553 14.552 18.818C14.4867 18.7807 14.4353 18.7107 14.398 18.608C14.342 18.2253 14.1273 17.9033 13.754 17.642C13.3807 17.3807 12.8953 17.25 12.298 17.25C11.6913 17.25 11.1967 17.3667 10.814 17.6C10.4407 17.8333 10.254 18.1973 10.254 18.692C10.254 19.0093 10.3427 19.2753 10.52 19.49C10.6973 19.6953 10.9773 19.8773 11.36 20.036C11.7427 20.1947 12.242 20.3627 12.858 20.54C13.6047 20.7453 14.216 20.9647 14.692 21.198C15.168 21.422 15.518 21.7067 15.742 22.052C15.9753 22.388 16.092 22.822 16.092 23.354C16.092 23.942 15.938 24.446 15.63 24.866C15.322 25.2767 14.888 25.594 14.328 25.818C13.7773 26.0327 13.124 26.14 12.368 26.14ZM19.775 26.14C19.3083 26.14 18.8837 26.0467 18.501 25.86C18.1183 25.6733 17.8103 25.4213 17.577 25.104C17.3437 24.7867 17.227 24.4273 17.227 24.026C17.227 23.382 17.4883 22.8687 18.011 22.486C18.5337 22.1033 19.215 21.8513 20.055 21.73L22.141 21.436V21.03C22.141 20.582 22.0103 20.232 21.749 19.98C21.497 19.728 21.0817 19.602 20.503 19.602C20.0923 19.602 19.7563 19.686 19.495 19.854C19.2337 20.022 19.0517 20.2367 18.949 20.498C18.893 20.638 18.795 20.708 18.655 20.708H18.025C17.9223 20.708 17.843 20.68 17.787 20.624C17.7403 20.5587 17.717 20.484 17.717 20.4C17.717 20.26 17.7683 20.0873 17.871 19.882C17.983 19.6767 18.151 19.476 18.375 19.28C18.599 19.084 18.8837 18.9207 19.229 18.79C19.5837 18.65 20.013 18.58 20.517 18.58C21.077 18.58 21.5483 18.6547 21.931 18.804C22.3137 18.944 22.6123 19.1353 22.827 19.378C23.051 19.6207 23.2097 19.896 23.303 20.204C23.4057 20.512 23.457 20.8247 23.457 21.142V25.678C23.457 25.7713 23.4243 25.8507 23.359 25.916C23.303 25.972 23.2283 26 23.135 26H22.491C22.3883 26 22.309 25.972 22.253 25.916C22.197 25.8507 22.169 25.7713 22.169 25.678V25.076C22.0477 25.244 21.8843 25.412 21.679 25.58C21.4737 25.7387 21.217 25.874 20.909 25.986C20.601 26.0887 20.223 26.14 19.775 26.14ZM20.069 25.09C20.4517 25.09 20.8017 25.0107 21.119 24.852C21.4363 24.684 21.6837 24.4273 21.861 24.082C22.0477 23.7367 22.141 23.3027 22.141 22.78V22.388L20.517 22.626C19.8543 22.7193 19.355 22.878 19.019 23.102C18.683 23.3167 18.515 23.592 18.515 23.928C18.515 24.1893 18.5897 24.4087 18.739 24.586C18.8977 24.754 19.0937 24.88 19.327 24.964C19.5697 25.048 19.817 25.09 20.069 25.09ZM25.8056 26C25.7123 26 25.6329 25.972 25.5676 25.916C25.5116 25.8507 25.4836 25.7713 25.4836 25.678V16.382C25.4836 16.2887 25.5116 16.214 25.5676 16.158C25.6329 16.0927 25.7123 16.06 25.8056 16.06H26.4636C26.5663 16.06 26.6456 16.0927 26.7016 16.158C26.7576 16.214 26.7856 16.2887 26.7856 16.382V25.678C26.7856 25.7713 26.7576 25.8507 26.7016 25.916C26.6456 25.972 26.5663 26 26.4636 26H25.8056ZM31.7859 26.14C30.8152 26.14 30.0452 25.846 29.4759 25.258C28.9066 24.6607 28.5939 23.8487 28.5379 22.822C28.5286 22.7007 28.5239 22.5467 28.5239 22.36C28.5239 22.164 28.5286 22.0053 28.5379 21.884C28.5752 21.2213 28.7292 20.6427 28.9999 20.148C29.2706 19.644 29.6392 19.2567 30.1059 18.986C30.5819 18.7153 31.1372 18.58 31.7719 18.58C32.4812 18.58 33.0739 18.7293 33.5499 19.028C34.0352 19.3267 34.4039 19.7513 34.6559 20.302C34.9079 20.8527 35.0339 21.4967 35.0339 22.234V22.472C35.0339 22.5747 35.0012 22.654 34.9359 22.71C34.8799 22.766 34.8052 22.794 34.7119 22.794H29.8679C29.8679 22.8033 29.8679 22.822 29.8679 22.85C29.8679 22.878 29.8679 22.9013 29.8679 22.92C29.8866 23.3027 29.9706 23.662 30.1199 23.998C30.2692 24.3247 30.4839 24.5907 30.7639 24.796C31.0532 25.0013 31.3892 25.104 31.7719 25.104C32.1079 25.104 32.3879 25.0527 32.6119 24.95C32.8359 24.8473 33.0179 24.7353 33.1579 24.614C33.2979 24.4833 33.3912 24.3807 33.4379 24.306C33.5219 24.194 33.5872 24.1287 33.6339 24.11C33.6806 24.082 33.7552 24.068 33.8579 24.068H34.5439C34.6279 24.068 34.6979 24.096 34.7539 24.152C34.8192 24.1987 34.8472 24.2687 34.8379 24.362C34.8286 24.502 34.7539 24.6747 34.6139 24.88C34.4739 25.076 34.2732 25.272 34.0119 25.468C33.7599 25.664 33.4426 25.8273 33.0599 25.958C32.6866 26.0793 32.2619 26.14 31.7859 26.14ZM29.8679 21.828H33.7039V21.786C33.7039 21.366 33.6246 20.9927 33.4659 20.666C33.3166 20.3393 33.0972 20.0827 32.8079 19.896C32.5186 19.7 32.1732 19.602 31.7719 19.602C31.3706 19.602 31.0252 19.7 30.7359 19.896C30.4559 20.0827 30.2412 20.3393 30.0919 20.666C29.9426 20.9927 29.8679 21.366 29.8679 21.786V21.828Z" fill="black"/>
</svg>
