<svg width="598" height="50" viewBox="0 0 598 50" fill="none" xmlns="http://www.w3.org/2000/svg">
<line x1="21" y1="25.5" x2="585" y2="25.5" stroke="white" stroke-width="3"/>
<circle cx="11" cy="26" r="9.5" fill="#FAA400" stroke="white" stroke-width="3"/>
<circle cx="587" cy="26" r="9.5" fill="#FAA400" stroke="white" stroke-width="3"/>
<circle cx="587" cy="26" r="3.5" fill="#FAA400" stroke="white" stroke-width="3"/>
<circle cx="11" cy="26" r="3.5" fill="#FAA400" stroke="white" stroke-width="3"/>
<circle cx="394" cy="26" r="6.5" fill="#FAA400" stroke="white" stroke-width="3"/>
<circle cx="204" cy="26" r="6.5" fill="#FAA400" stroke="white" stroke-width="3"/>
<path d="M300.134 49.2537L308.896 30.6486L322.729 30.6486C326.056 30.6486 330 28.297 330 24.9999C330 21.7029 326.056 19.3513 322.729 19.3513L308.896 19.3513L300.134 0.74633C299.882 0.336428 299.279 -1.34286e-06 298.794 -1.36404e-06L292.814 -1.62545e-06C292.328 -1.6467e-06 292.058 0.37238 292.213 0.827954L297.4 20.4994L284.82 20.4994C284.82 20.4994 282.453 17.3003 281.161 15.3831C279.873 13.4659 277.292 14.3168 277.292 15.8093C277.292 17.3003 277.292 22.9751 277.292 22.9751C277.292 22.9751 276 23.9336 276 24.9999C276 26.0663 277.292 27.0249 277.292 27.0249C277.292 27.0249 277.292 32.6997 277.292 34.1907C277.292 35.6832 279.873 36.5341 281.161 34.6169C282.453 32.6997 284.82 29.5006 284.82 29.5006L297.4 29.5006L292.212 49.1704C292.058 49.6276 292.328 50 292.814 50L298.794 50C299.279 49.9999 299.882 49.6651 300.134 49.2537Z" fill="white"/>
</svg>
